<?xml version="1.0" encoding="UTF-8" standalone="no"?>
<svg
   width="229.6mm"
   height="268.6mm"
   version="1.1"
   viewBox="0 0 229.61653 268.59289"
   id="svg5"
   sodipodi:docname="fm-bv2.svg"
   inkscape:version="1.4.2 (ebf0e940, 2025-05-08)"
   xmlns:inkscape="http://www.inkscape.org/namespaces/inkscape"
   xmlns:sodipodi="http://sodipodi.sourceforge.net/DTD/sodipodi-0.dtd"
   xmlns="http://www.w3.org/2000/svg"
   xmlns:svg="http://www.w3.org/2000/svg">
  <defs
     id="defs5" />
  <sodipodi:namedview
     id="namedview5"
     pagecolor="#ffffff"
     bordercolor="#000000"
     borderopacity="0.25"
     inkscape:showpageshadow="2"
     inkscape:pageopacity="0.0"
     inkscape:pagecheckerboard="0"
     inkscape:deskcolor="#d1d1d1"
     inkscape:document-units="mm"
     inkscape:zoom="0.85303628"
     inkscape:cx="521.66597"
     inkscape:cy="542.18092"
     inkscape:window-width="2560"
     inkscape:window-height="1440"
     inkscape:window-x="0"
     inkscape:window-y="0"
     inkscape:window-maximized="0"
     inkscape:current-layer="g4" />
  <g
     transform="translate(-522.7 286.2)"
     id="g5">
    <g
       transform="matrix(.8419 0 0 .8419 -122.6 -5.037)"
       id="g4">
      <path
         d="m 790.4,-333.9 c -12.68,0.2836 -23.86,13.25 -23.88,26.53 v 268.2 c 1.877,10.63 10.79,19.79 21.89,24.33 h 229 c 11.1,-4.542 20.01,-13.7 21.89,-24.33 v -268.2 c -0.013,-13.29 -11.2,-26.25 -23.88,-26.53 h -113.5 z m 93.96,52.16 h 37.05 l 35.54,0.0884 35.54,0.0884 v 5.292 l -58.74,0.001 c -21.11,-0.0213 -41.68,-0.001 -61.75,0 l -58.74,-0.001 v -5.292 l 35.54,-0.0884 z m 18.53,21.58 89.61,0.1183 c 0.2179,40.31 0.2566,90.21 0.1762,135.8 l -89.58,0.0444 h -0.4072 l -89.58,-0.0444 c -0.0804,-45.61 -0.0417,-95.51 0.1762,-135.8 z m -85.348,163.231 h 30.34 c 1.372,0.031 2.697,1.716 2.731,2.896 v 30.13 c -0.0661,0.925 -1.992,2.636 -2.731,2.737 h -30.34 c -1.268,-0.0656 -3.058,-1.804 -3.142,-2.737 -0.2343,-0.8056 -0.0418,-3.717 0,-16.34 v -13.79 c -0.0634,-1.11 1.641,-2.806 3.142,-2.896 z m 140.4,0 h 30.34 c 1.501,0.0901 3.205,1.786 3.142,2.896 v 13.79 c 0.0418,12.62 0.2343,15.53 0,16.34 -0.0841,0.9331 -1.874,2.672 -3.142,2.737 h -30.34 c -0.7388,-0.1018 -2.664,-1.812 -2.731,-2.737 v -30.13 c 0.0337,-1.18 1.358,-2.865 2.731,-2.896 z"
         fill="#eea111"
         fill-rule="evenodd"
         id="path4"
         sodipodi:nodetypes="ccccccccccccccccccccccccccccccccccccccccccccccccc"
         style="fill:#000000" />
    </g>
  </g>
</svg>
